<?xml version="1.0" encoding="UTF-8" standalone="no"?>
<!-- Generator: Adobe Illustrator 20.1.0, SVG Export Plug-In . SVG Version: 6.00 Build 0)  -->

<svg
   xmlns:dc="http://purl.org/dc/elements/1.1/"
   xmlns:cc="http://creativecommons.org/ns#"
   xmlns:rdf="http://www.w3.org/1999/02/22-rdf-syntax-ns#"
   xmlns:svg="http://www.w3.org/2000/svg"
   xmlns="http://www.w3.org/2000/svg"
   xmlns:sodipodi="http://sodipodi.sourceforge.net/DTD/sodipodi-0.dtd"
   xmlns:inkscape="http://www.inkscape.org/namespaces/inkscape"
   version="1.1"
   id="Слой_1"
   x="0px"
   y="0px"
   viewBox="0 0 73 43.787739"
   xml:space="preserve"
   inkscape:version="0.91 r13725"
   sodipodi:docname="eye.svg"
   width="73"
   height="43.787739"><metadata
     id="metadata13"><rdf:RDF><cc:Work
         rdf:about=""><dc:format>image/svg+xml</dc:format><dc:type
           rdf:resource="http://purl.org/dc/dcmitype/StillImage" /><dc:title></dc:title></cc:Work></rdf:RDF></metadata><defs
     id="defs11" /><sodipodi:namedview
     pagecolor="#ffffff"
     bordercolor="#ffffff"
     borderopacity="1"
     objecttolerance="10"
     gridtolerance="10"
     guidetolerance="10"
     inkscape:pageopacity="0"
     inkscape:pageshadow="2"
     inkscape:window-width="1920"
     inkscape:window-height="1137"
     id="namedview9"
     showgrid="false"
     fit-margin-top="0"
     fit-margin-left="0"
     fit-margin-right="0"
     fit-margin-bottom="0"
     inkscape:zoom="4.72"
     inkscape:cx="63.50015"
     inkscape:cy="1.1578056"
     inkscape:window-x="-8"
     inkscape:window-y="-8"
     inkscape:window-maximized="1"
     inkscape:current-layer="Слой_1" /><g
     id="g3"
     transform="translate(24,8.9791391)"><path
       d="m 1.2,-7.2 c -2.9,1.1 -7,3 -9,4.2 -5.3,3.3 -16.2,13.8 -16.2,15.8 0,2 11.1,13 16.5,16.3 C 3.8,36 16.4,36.7 28.4,30.9 35.8,27.4 49,15.8 49,12.9 49,10.2 35.2,-2.2 28.5,-5.5 20.5,-9.4 9.1,-10.1 1.2,-7.2 l 0,0 z M 24.6,-1 c 3.7,1.4 7.6,4 11.7,7.9 l 6.2,5.9 -4.4,4.5 C 31.2,24.3 23.1,28.2 14,28.7 3.6,29.3 -3,26.7 -11.3,19 l -6.2,-5.8 4,-4.2 C -2.8,-2.2 11.5,-5.9 24.6,-1 l 0,0 z"
       id="path5"
       inkscape:connector-curvature="0"
       style="fill:#9883a7;fill-opacity:1" /><path
       d="M 8,1.2 C -2.8,4.9 -2.3,21 8.7,24.8 c 3.6,1.3 4.6,1.3 7.9,0 4.8,-1.8 8.6,-7.2 8.2,-11.4 -0.4,-4.5 -3.9,-4.2 -5.4,0.5 -1.5,4.6 -5.2,6.8 -9.1,5.5 C 3.6,17 4.1,8.5 11,6.3 c 3.7,-1.2 5.1,-4 2.8,-5.5 -1.6,-1 -1.6,-1 -5.8,0.4 l 0,0 z"
       id="path7"
       inkscape:connector-curvature="0"
       style="fill:#9883a7;fill-opacity:1" /></g></svg>