<?xml version="1.0" standalone="no"?>
<!DOCTYPE svg PUBLIC "-//W3C//DTD SVG 20010904//EN"
 "http://www.w3.org/TR/2001/REC-SVG-20010904/DTD/svg10.dtd">
<svg version="1.0" xmlns="http://www.w3.org/2000/svg"
 width="66pt" height="66pt" viewBox="0 0 66 66"
 preserveAspectRatio="xMidYMid meet">
<metadata>
Created by Potrace Professional 1.0c
</metadata>
<g transform="translate(0,66) scale(0.100000,-0.100000)"
fill="#000000" stroke="none">
<path d="M430 640 c-11 -11 -20 -31 -20 -45 0 -29 2 -29 -53 -10 -81 27 -185
-18 -144 -63 17 -18 14 -21 -80 -79 -78 -48 -98 -64 -98 -83 0 -12 8 -28 18
-34 15 -9 37 -1 119 42 70 37 104 50 112 42 7 -7 4 -10 -11 -10 -33 0 -55 -27
-43 -51 11 -20 57 -25 118 -13 42 9 53 52 22 91 -19 25 -20 28 -5 31 28 6 43
-5 50 -37 6 -28 10 -31 45 -31 41 0 66 20 56 46 -3 9 -15 18 -26 21 -12 3 -20
14 -20 26 0 11 -7 28 -15 37 -14 15 -12 16 14 12 58 -8 96 73 53 111 -25 23
-68 21 -92 -3z m83 -32 c14 -41 -52 -67 -73 -28 -15 28 22 65 49 50 11 -5 21
-15 24 -22z m-193 -52 c-32 -18 -78 -24 -81 -11 -3 10 38 22 81 23 l25 1 -25
-13z m105 -43 c14 -21 25 -46 25 -56 0 -10 10 -22 23 -27 21 -8 21 -9 -5 -9
-23 -1 -29 5 -36 32 -8 31 -11 32 -55 30 -37 -1 -74 -16 -177 -72 -72 -39
-133 -71 -136 -71 -40 0 120 114 271 193 45 24 62 20 90 -20z m-81 -95 c29
-41 21 -56 -31 -60 -27 -3 -52 -2 -57 0 -14 8 24 20 63 21 l35 1 -29 30 c-22
23 -25 30 -12 30 9 0 23 -10 31 -22z"/>
<path d="M40 575 c0 -8 7 -15 15 -15 8 0 15 7 15 15 0 8 -7 15 -15 15 -8 0
-15 -7 -15 -15z"/>
<path d="M86 581 c-10 -15 7 -21 61 -21 40 0 53 4 53 15 0 11 -13 15 -54 15
-30 0 -57 -4 -60 -9z"/>
<path d="M26 543 c-11 -11 -6 -23 9 -23 8 0 15 4 15 9 0 13 -16 22 -24 14z"/>
<path d="M67 544 c-18 -18 -2 -24 59 -24 48 0 65 3 62 13 -5 13 -109 23 -121
11z"/>
<path d="M0 490 c0 -5 5 -10 10 -10 6 0 10 5 10 10 0 6 -4 10 -10 10 -5 0 -10
-4 -10 -10z"/>
<path d="M40 490 c0 -5 25 -10 55 -10 30 0 55 5 55 10 0 6 -25 10 -55 10 -30
0 -55 -4 -55 -10z"/>
<path d="M587 450 c5 -17 0 -20 -26 -20 -50 0 -40 -28 11 -32 35 -3 43 -7 51
-31 6 -19 5 -37 -3 -58 -12 -29 -13 -29 -91 -29 -60 0 -88 5 -116 20 -21 11
-56 20 -78 20 -22 0 -57 -9 -78 -20 -29 -16 -56 -20 -127 -20 -73 0 -90 -3
-90 -15 0 -12 15 -15 79 -15 l79 0 -15 -31 c-47 -95 39 -219 152 -219 113 0
199 124 152 219 l-15 31 59 0 c52 0 59 -2 59 -20 0 -37 17 -20 45 45 l28 66
-28 64 c-15 36 -33 65 -40 65 -8 0 -11 -8 -8 -20z m-154 -199 c24 -24 31 -40
35 -84 4 -49 2 -57 -28 -90 -60 -68 -150 -69 -209 -2 -26 30 -31 44 -31 85 0
43 5 56 33 86 55 60 143 63 200 5z"/>
<path d="M272 260 c-29 -18 -62 -71 -62 -100 0 -5 9 -10 21 -10 16 0 19 4 14
20 -3 11 -2 20 3 20 5 0 12 9 15 20 3 11 12 20 21 20 9 0 16 4 16 8 0 4 16 8
35 8 19 0 35 -3 35 -7 0 -4 9 -9 20 -12 11 -3 20 -12 20 -21 0 -9 5 -16 11
-16 6 0 8 -9 4 -20 -5 -16 -2 -20 14 -20 25 0 26 9 7 55 -17 40 -68 75 -111
75 -16 0 -45 -9 -63 -20z"/>
<path d="M356 157 c-26 -34 -33 -57 -18 -57 7 0 37 35 55 67 4 6 3 14 -2 17
-5 4 -21 -9 -35 -27z"/>
<path d="M280 65 c0 -8 5 -15 10 -15 6 0 10 7 10 15 0 8 -4 15 -10 15 -5 0
-10 -7 -10 -15z"/>
<path d="M320 65 c0 -8 7 -15 15 -15 8 0 15 7 15 15 0 8 -7 15 -15 15 -8 0
-15 -7 -15 -15z"/>
<path d="M370 65 c0 -8 5 -15 10 -15 6 0 10 7 10 15 0 8 -4 15 -10 15 -5 0
-10 -7 -10 -15z"/>
<path d="M0 265 c0 -8 5 -15 10 -15 6 0 10 7 10 15 0 8 -4 15 -10 15 -5 0 -10
-7 -10 -15z"/>
</g>
</svg>
