<?xml version="1.0" encoding="UTF-8" ?>
<!DOCTYPE svg PUBLIC "-//W3C//DTD SVG 1.1//EN" "http://www.w3.org/Graphics/SVG/1.1/DTD/svg11.dtd">
<svg width="66pt" height="66pt" viewBox="0 0 66 66" version="1.1" xmlns="http://www.w3.org/2000/svg">
<path fill="#ffffff" d=" M 0.00 0.00 L 31.75 0.00 C 28.73 0.78 25.66 2.38 24.40 5.40 C 22.66 8.63 23.96 12.28 24.60 15.60 C 23.17 14.35 21.76 13.08 20.37 11.79 C 19.81 11.77 18.68 11.72 18.12 11.70 C 18.04 16.76 17.87 21.88 18.98 26.86 C 18.33 30.75 17.48 34.94 19.23 38.69 C 20.51 42.07 23.41 44.39 26.20 46.51 C 22.35 48.26 18.49 50.46 16.14 54.10 C 13.60 57.55 13.05 61.89 12.41 66.00 L 0.00 66.00 L 0.00 37.27 C 3.66 37.27 7.33 37.27 10.99 37.26 C 11.24 38.35 11.74 40.55 11.99 41.64 C 13.52 38.18 15.28 34.68 15.71 30.87 C 15.29 27.10 13.53 23.64 12.15 20.15 C 11.63 21.56 11.22 23.01 10.88 24.47 C 7.25 24.46 3.63 24.46 0.00 24.46 L 0.00 0.00 Z" />
<path fill="#763e9e" d=" M 31.75 0.00 L 34.74 0.00 C 37.53 1.00 40.41 2.57 41.62 5.44 C 43.20 8.32 42.24 11.62 41.51 14.59 C 43.52 15.79 45.94 16.73 47.08 18.92 C 48.48 21.40 47.44 24.26 47.03 26.86 C 47.66 30.74 48.52 34.93 46.78 38.67 C 45.50 42.06 42.61 44.40 39.79 46.49 C 44.35 48.48 48.77 51.41 51.01 56.02 C 52.71 59.07 53.02 62.61 53.47 66.00 L 12.41 66.00 C 13.05 61.89 13.60 57.55 16.14 54.10 C 18.49 50.46 22.35 48.26 26.20 46.51 C 23.41 44.39 20.51 42.07 19.23 38.69 C 17.48 34.94 18.33 30.75 18.98 26.86 C 17.87 21.88 18.04 16.76 18.12 11.70 C 18.68 11.72 19.81 11.77 20.37 11.79 C 21.76 13.08 23.17 14.35 24.60 15.60 C 23.96 12.28 22.66 8.63 24.40 5.40 C 25.66 2.38 28.73 0.78 31.75 0.00 Z" />
<path fill="#ffffff" d=" M 34.74 0.00 L 66.00 0.00 L 66.00 24.60 C 62.99 22.76 63.05 27.76 66.00 27.47 L 66.00 35.13 C 61.77 35.12 57.54 35.13 53.32 35.14 C 52.55 32.33 52.53 29.42 53.30 26.60 C 56.13 26.60 58.95 26.60 61.78 26.60 C 61.78 26.07 61.77 25.00 61.77 24.47 C 59.56 24.47 57.35 24.47 55.14 24.46 C 54.75 23.02 54.34 21.58 53.87 20.15 C 52.46 23.63 50.72 27.11 50.30 30.88 C 50.73 34.67 52.47 38.17 53.99 41.62 C 54.25 40.53 54.75 38.35 55.01 37.26 C 58.67 37.27 62.34 37.27 66.00 37.27 L 66.00 66.00 L 53.47 66.00 C 53.02 62.61 52.71 59.07 51.01 56.02 C 48.77 51.41 44.35 48.48 39.79 46.49 C 42.61 44.40 45.50 42.06 46.78 38.67 C 48.52 34.93 47.66 30.74 47.03 26.86 C 47.44 24.26 48.48 21.40 47.08 18.92 C 45.94 16.73 43.52 15.79 41.51 14.59 C 42.24 11.62 43.20 8.32 41.62 5.44 C 40.41 2.57 37.53 1.00 34.74 0.00 Z" />
<path fill="#ffffff" d=" M 30.43 2.61 C 35.57 0.41 41.65 5.62 40.29 11.04 C 39.47 16.27 32.52 18.88 28.47 15.47 C 23.86 12.26 25.07 4.30 30.43 2.61 Z" />
<path fill="#763e9e" d=" M 30.44 11.74 C 32.85 9.66 35.27 7.59 37.71 5.55 L 38.96 7.24 C 36.01 9.81 33.17 12.60 29.66 14.41 C 28.70 13.02 27.75 11.62 26.81 10.21 C 27.23 9.90 28.06 9.27 28.48 8.95 C 29.14 9.88 29.79 10.81 30.44 11.74 Z" />
<path fill="#ffffff" d=" M 20.11 15.44 C 23.98 16.88 28.01 17.82 31.95 19.02 C 35.70 19.99 38.95 15.78 42.61 17.50 C 45.95 18.83 46.85 23.71 44.19 26.14 C 42.60 27.84 40.09 27.62 37.98 27.69 C 33.68 27.63 29.37 27.83 25.08 27.57 C 22.90 27.50 20.83 25.83 20.46 23.65 C 20.07 20.94 20.23 18.17 20.11 15.44 Z" />
<path fill="#763e9e" d=" M 10.88 24.47 C 11.22 23.01 11.63 21.56 12.15 20.15 C 13.53 23.64 15.29 27.10 15.71 30.87 C 15.28 34.68 13.52 38.18 11.99 41.64 C 11.74 40.55 11.24 38.35 10.99 37.26 C 7.33 37.27 3.66 37.27 0.00 37.27 L 0.00 35.13 C 4.22 35.12 8.44 35.12 12.66 35.14 C 13.45 32.33 13.49 29.42 12.70 26.60 C 8.47 26.60 4.23 26.61 0.00 26.60 L 0.00 24.46 C 3.63 24.46 7.25 24.46 10.88 24.47 Z" />
<path fill="#763e9e" d=" M 53.87 20.15 C 54.34 21.58 54.75 23.02 55.14 24.46 C 57.35 24.47 59.56 24.47 61.77 24.47 C 61.77 25.00 61.78 26.07 61.78 26.60 C 58.95 26.60 56.13 26.60 53.30 26.60 C 52.53 29.42 52.55 32.33 53.32 35.14 C 57.54 35.13 61.77 35.12 66.00 35.13 L 66.00 37.27 C 62.34 37.27 58.67 37.27 55.01 37.26 C 54.75 38.35 54.25 40.53 53.99 41.62 C 52.47 38.17 50.73 34.67 50.30 30.88 C 50.72 27.11 52.46 23.63 53.87 20.15 Z" />
<path fill="#763e9e" d=" M 66.00 27.47 C 63.05 27.76 62.99 22.76 66.00 24.60 L 66.00 27.47 Z" />
<path fill="#ffffff" d=" M 0.00 26.60 C 4.23 26.61 8.47 26.60 12.70 26.60 C 13.49 29.42 13.45 32.33 12.66 35.14 C 8.44 35.12 4.22 35.12 0.00 35.13 L 0.00 26.60 Z" />
<path fill="#ffffff" d=" M 22.61 40.41 C 19.99 37.05 20.00 32.61 20.74 28.61 C 25.64 30.42 30.90 29.68 35.99 29.84 C 39.13 29.96 42.28 29.65 45.26 28.61 C 46.39 33.51 45.53 39.10 41.53 42.50 C 36.20 47.57 26.70 46.52 22.61 40.41 Z" />
<path fill="#763e9e" d=" M 4.14 29.98 C 5.22 28.57 7.62 30.40 6.39 31.77 C 5.30 33.19 2.90 31.36 4.14 29.98 Z" />
<path fill="#763e9e" d=" M 8.28 30.33 C 8.90 28.59 11.68 29.79 10.88 31.44 C 10.26 33.18 7.48 31.98 8.28 30.33 Z" />
<path fill="#763e9e" d=" M 55.22 30.04 C 56.19 28.48 58.66 30.21 57.55 31.67 C 56.57 33.23 54.10 31.49 55.22 30.04 Z" />
<path fill="#763e9e" d=" M 59.66 29.96 C 60.78 28.56 63.15 30.43 61.84 31.77 C 60.73 33.19 58.34 31.31 59.66 29.96 Z" />
<path fill="#ffffff" d=" M 27.35 48.31 C 31.10 47.89 34.89 47.88 38.65 48.31 C 37.68 49.59 36.71 50.86 35.73 52.13 C 33.91 52.13 32.09 52.13 30.27 52.13 C 29.29 50.86 28.31 49.59 27.35 48.31 Z" />
<path fill="#ffffff" d=" M 21.58 51.31 C 22.79 50.61 24.01 49.92 25.24 49.24 C 26.35 50.63 27.46 52.01 28.57 53.39 C 27.63 55.17 26.68 56.94 25.72 58.71 C 24.31 56.26 22.94 53.79 21.58 51.31 Z" />
<path fill="#ffffff" d=" M 37.43 53.37 C 38.54 51.99 39.65 50.61 40.77 49.24 C 41.99 49.92 43.20 50.61 44.42 51.31 C 43.06 53.79 41.68 56.26 40.27 58.71 C 39.31 56.94 38.36 55.15 37.43 53.37 Z" />
<path fill="#ffffff" d=" M 14.74 63.84 C 15.40 59.72 17.16 55.89 19.84 52.68 C 21.73 55.99 23.58 59.32 25.41 62.66 C 26.39 61.35 27.37 60.05 28.36 58.75 C 28.29 60.45 28.19 62.15 28.08 63.85 C 23.63 63.87 19.19 63.88 14.74 63.84 Z" />
<path fill="#ffffff" d=" M 30.45 54.28 C 32.15 54.27 33.84 54.27 35.54 54.27 C 36.03 55.27 36.52 56.27 37.02 57.26 C 36.35 57.94 35.69 58.62 35.03 59.30 C 35.34 60.82 35.65 62.34 35.96 63.87 C 33.99 63.87 32.02 63.87 30.04 63.87 C 30.35 62.34 30.66 60.82 30.97 59.30 C 30.48 58.79 29.48 57.78 28.99 57.28 C 29.47 56.28 29.96 55.28 30.45 54.28 Z" />
<path fill="#ffffff" d=" M 40.59 62.66 C 42.42 59.32 44.26 55.99 46.15 52.69 C 48.84 55.88 50.59 59.72 51.26 63.84 C 46.81 63.88 42.37 63.87 37.92 63.86 C 37.80 62.16 37.71 60.45 37.64 58.75 C 38.63 60.05 39.61 61.35 40.59 62.66 Z" />
</svg>
